<?xml version="1.0" standalone="no"?>
<!DOCTYPE svg PUBLIC "-//W3C//DTD SVG 20010904//EN"
 "http://www.w3.org/TR/2001/REC-SVG-20010904/DTD/svg10.dtd">
<svg version="1.0" xmlns="http://www.w3.org/2000/svg"
 width="200.000000pt" height="200.000000pt" viewBox="0 0 200.000000 200.000000"
 preserveAspectRatio="xMidYMid meet">

<g transform="translate(0.000000,200.000000) scale(0.100000,-0.100000)"
fill="#000000" stroke="none">
<path d="M530 1685 l0 -315 -25 0 -25 0 0 310 c0 171 -3 310 -7 310 -32 -1
-36 -23 -54 -276 -24 -342 -24 -395 1 -443 22 -44 70 -88 106 -97 20 -5 24
-12 24 -43 -1 -108 -24 -316 -60 -556 -57 -373 -51 -462 40 -539 49 -41 52
-31 5 17 -54 54 -69 104 -66 227 3 154 17 196 17 50 -1 -150 17 -218 72 -284
30 -37 42 -44 62 -40 71 14 119 92 127 206 3 52 -4 137 -26 295 -41 290 -61
479 -61 579 0 81 0 82 30 94 17 7 43 28 60 46 53 61 56 87 37 378 -10 143 -18
277 -17 296 0 40 -18 81 -39 88 -12 4 -13 -44 -10 -304 l4 -309 -25 0 -25 0
-3 313 c-2 303 -3 312 -22 312 -19 0 -20 -9 -22 -312 l-3 -313 -25 0 -25 0 -3
313 c-2 304 -3 312 -22 312 -20 0 -20 -7 -20 -315z m-11 -443 c71 -25 164 -11
226 32 l30 21 -23 -32 c-44 -63 -151 -91 -225 -59 -18 7 -48 31 -67 51 -34 38
-34 38 -5 18 17 -11 45 -25 64 -31z"/>
<path d="M1242 1983 c-50 -24 -100 -88 -148 -188 -65 -137 -89 -237 -89 -375
0 -110 1 -118 33 -182 37 -75 111 -150 169 -169 l36 -11 -6 -112 c-3 -61 -24
-223 -48 -361 -62 -369 -57 -464 27 -546 29 -28 42 -34 80 -34 40 0 50 5 79
37 77 84 80 174 20 538 -19 118 -38 274 -42 346 l-6 130 49 19 c69 26 145 105
174 180 56 146 26 369 -77 567 -78 151 -162 205 -251 161z m-123 -240 c-27
-80 -49 -212 -49 -299 0 -128 31 -231 92 -299 43 -49 7 -32 -44 22 -56 58 -80
122 -86 229 -6 122 28 272 89 387 19 34 18 16 -2 -40z m55 -1395 c-10 -134 15
-237 75 -302 23 -25 23 -27 5 -18 -33 17 -72 69 -84 110 -11 41 -13 175 -4
246 11 75 16 53 8 -36z"/>
</g>
</svg>
