<svg width="125" height="85" viewBox="0 0 125 85" fill="none" xmlns="http://www.w3.org/2000/svg">
<path fill-rule="evenodd" clip-rule="evenodd" d="M118.679 38.0203C122.325 35.8636 124.896 30.64 124.896 24.5386C124.896 16.5091 120.442 10 114.948 10C109.454 10 105 16.5091 105 24.5386C105 30.64 107.572 35.8636 111.218 38.0203V76H118.679V38.0203Z" fill="black"/>
<path d="M62.5 83.5C85.1437 83.5 103.5 65.1437 103.5 42.5C103.5 19.8563 85.1437 1.5 62.5 1.5C39.8563 1.5 21.5 19.8563 21.5 42.5C21.5 65.1437 39.8563 83.5 62.5 83.5Z" stroke="#CD5521" stroke-width="3"/>
<path d="M63 73.5C80.397 73.5 94.5 59.397 94.5 42C94.5 24.603 80.397 10.5 63 10.5C45.603 10.5 31.5 24.603 31.5 42C31.5 59.397 45.603 73.5 63 73.5Z" stroke="black"/>
<path d="M47.2656 52C48.5573 51.75 49.5365 51.0208 50.2031 49.8125L50.2344 49.6875V29.9844H45.75L45.5312 30C44.7917 30.0729 43.349 31.2135 41.2031 33.4219L44.1094 28.3906H59.4531L62.3594 33.4219C60.2135 31.2135 58.7708 30.0729 58.0312 30L57.8125 29.9844H53.3281V49.6875L53.3594 49.8281C53.9219 50.9844 54.901 51.7083 56.2969 52H47.2656ZM71.4688 29.625C70.6562 29.625 69.8594 29.8177 69.0781 30.2031C68.7656 30.3906 68.5156 30.6406 68.3281 30.9531C68.1823 31.2031 68.1094 31.5521 68.1094 32V39.7812C68.6302 40.75 69.474 41.4167 70.6406 41.7812C71.1406 41.9271 71.625 42 72.0938 42C72.1458 42 72.2031 42 72.2656 42C72.3073 42 72.5156 41.9896 72.8906 41.9688C73.8802 41.8646 74.7135 41.5417 75.3906 41C76.6198 40.0104 77.2344 38.3021 77.2344 35.875C77.2344 34.625 76.9844 33.5 76.4844 32.5C76.0469 31.625 75.3802 30.9062 74.4844 30.3438C73.7135 29.8646 72.7083 29.625 71.4688 29.625ZM62.0469 52C63.3385 51.75 64.3177 51.0208 64.9844 49.8125L65.0156 49.6875V32C65.0156 31.75 64.9479 31.5677 64.8125 31.4531C64.625 31.2969 64.3073 31.1667 63.8594 31.0625C62.9427 30.8542 62.3385 30.7396 62.0469 30.7188C62.7656 30.3958 64.3594 29.8021 66.8281 28.9375C68.5781 28.3229 70.0885 28.0156 71.3594 28.0156C71.401 28.0156 71.4427 28.0156 71.4844 28.0156C73.0365 28.0156 74.3385 28.2292 75.3906 28.6562C76.4531 29.0729 77.3385 29.6042 78.0469 30.25C79.0156 31.1354 79.7031 32.0729 80.1094 33.0625C80.3802 33.625 80.5469 34.5625 80.6094 35.875C80.5573 37.9167 79.9635 39.5417 78.8281 40.75C77.9635 41.6667 76.9948 42.3646 75.9219 42.8438C76.3073 43.0625 76.6302 43.3281 76.8906 43.6406C77.4219 44.2865 78.3594 46.1198 79.7031 49.1406L80.0312 49.8281C80.4792 50.6927 81.0208 51.125 81.6562 51.125C81.6771 51.125 81.6979 51.125 81.7188 51.125C82.2812 51.125 82.8021 50.9271 83.2812 50.5312C83.8021 50.0729 84.2031 49.7396 84.4844 49.5312C84.349 50.8438 83.9115 51.8854 83.1719 52.6562C82.3594 53.5 81.5208 53.9219 80.6562 53.9219C80.6354 53.9219 80.6146 53.9219 80.5938 53.9219C79.6042 53.9219 78.7448 53.4323 78.0156 52.4531C77.8594 52.2448 77.5469 51.7031 77.0781 50.8281L74.8438 46.0938C74.1458 44.7396 73.401 43.901 72.6094 43.5781L72.5156 43.5469C72.2865 43.5469 72.0469 43.5417 71.7969 43.5312C70.2969 43.4688 69.0677 43.0312 68.1094 42.2188V49.6875L68.1406 49.8281C68.7031 50.9844 69.6823 51.7083 71.0781 52H62.0469Z" fill="black"/>
<path fill-rule="evenodd" clip-rule="evenodd" d="M12.461 11.2534L9.94819 10L7.43536 11.2534H7.58549C7.54394 11.2684 7.50249 11.2837 7.46115 11.2995V31.4499H4.14507V13.599C1.6347 16.272 0 20.6335 0 25.5601C0 31.7396 2.57182 37.0299 6.21762 39.2143V76H13.6788V39.2143C17.3246 37.03 19.8964 31.7396 19.8964 25.5601C19.8964 20.6335 18.2617 16.2719 15.7513 13.599V31.4499H12.4353V11.2995C12.3939 11.2837 12.3525 11.2684 12.3109 11.2534H12.461Z" fill="black"/>
</svg>
